 <svg id="Layer_1" data-name="Layer 1" xmlns="http://www.w3.org/2000/svg" viewBox="0 0 1138 260">
 <!--
    Crowbar shape derived from https://game-icons.net/delapouite/originals/crowbar.html
-->
 <defs><style>.cls-1{fill:#3770b8;stroke:#3770b8;}.cls-1,.cls-4,.cls-5{stroke-miterlimit:10;stroke-width:2.477px;}.cls-2{fill:#0086ff;}.cls-3,.cls-4,.cls-5{stroke:#0086ff;}.cls-3{stroke-width:4px;}.cls-4{fill:none;}</style></defs>
 <title>prybar 2</title>
 <rect class="cls-1" x="804.69" y="135.714" width="63.157" height="2.6"/>
 <polygon class="cls-2" points="767.667 237.167 782.333 237.167 803.667 95.667 831.667 66 821 54.333 799.333 60.333 759.333 231 767.667 237.167"/>
 <path class="cls-2" d="M888,228l-.333-68.333L895,114,866.667,45,822.083,22.667s-18.417,10-23.083,14.667-1.333,17-1.333,17L826,48.667,875,124l-11.333,52,9,54.667Z"/>
 <path class="cls-3" d="M75.214,235.86H34.907q-4.943,0-7.153-2.213T25.547,226.5V57.987q0-4.943,2.207-7.153c1.469-1.469,3.858-2.213,7.153-2.213H114.48q35.364,0,48.373,14.046t13,36.667V132.62q0,22.62-13,36.667t-48.373,14.04H84.574V226.5q0,4.943-2.207,7.147T75.214,235.86Zm35.627-74.633q12.226,0,19.893-2.6t11.833-7.153a24.557,24.557,0,0,0,5.72-10.92,58.451,58.451,0,0,0,1.56-13.913V107.394a60.094,60.094,0,0,0-1.56-14.04,25.524,25.524,0,0,0-5.72-11.186q-4.163-4.68-11.833-7.407T110.84,72.027H54.667V212.454h2.606V161.227Zm-53.567-2.6v-84H110.84q11.446,0,18.593,2.473a25.427,25.427,0,0,1,11.053,6.887,23.878,23.878,0,0,1,5.333,10.406,56.088,56.088,0,0,1,1.427,13V126.64a54.466,54.466,0,0,1-1.427,12.873,22.919,22.919,0,0,1-5.333,10.14,25.123,25.123,0,0,1-11.053,6.633q-7.156,2.34-18.593,2.34Zm26.78-61.373V136.52H107.46q7.537,0,9.88-3.9a16.841,16.841,0,0,0,2.34-8.84V109.994a16.856,16.856,0,0,0-2.34-8.84q-2.34-3.9-9.88-3.9Z"/>
 <path class="cls-3" d="M252.307,235.86H212.26q-4.943,0-7.153-2.213T202.9,226.5V57.987q0-4.943,2.207-7.153c1.469-1.469,3.858-2.213,7.153-2.213h86.6q29.114,0,40.174,12.093t11.053,31.34v11.96q0,10.92-3.253,18.593a20.229,20.229,0,0,1-11.307,11.053q14.04,1.56,22.753,11.44t8.713,26.267V226.5c0,3.3-.744,5.678-2.213,7.147s-3.858,2.213-7.153,2.213H317.32q-4.943,0-7.153-2.213T307.96,226.5V186.707c0-3.809-.744-6.627-2.213-8.447s-4.027-2.733-7.673-2.733H261.667V226.5q0,4.943-2.207,7.147T252.307,235.86ZM233.58,212.454V152.121h73.6q14.82,0,21.84,6.373t7.026,19.113v34.847h2.6V177.607q0-13.514-7.806-20.673t-23.66-7.153l-8.93.969c6.24-1.9,16.47-6.381,18.55-11.5s3.12-11.658,3.12-19.639v-17.94q0-12.743-7.28-21.193t-22.366-8.453H230.98V212.454ZM290.274,74.627q13.786,0,20.413,7.54t6.633,19.506v18.2q0,14.312-5.46,22.106t-21.586,7.8H233.58V74.627ZM261.667,95.434V128.72h19.506q6.757,0,9.1-3.513a15.364,15.364,0,0,0,2.34-8.713v-8.84a15.378,15.378,0,0,0-2.34-8.713q-2.34-3.51-9.1-3.507Z"/>
 <path class="cls-3" d="M483.233,235.86H441.106q-4.943,0-7.153-2.213t-2.207-7.147V193.213L391.96,139.9q-5.986-8.054-7.933-14.04t-1.953-17.946V57.987q0-4.943,2.213-7.153c1.469-1.469,3.858-2.213,7.153-2.213h40.047c3.289,0,5.678.744,7.153,2.213s2.207,3.858,2.207,7.153v42.647q0,2.6.26,5.46a11.108,11.108,0,0,0,2.08,5.46l11.966,18.726a10.186,10.186,0,0,0,2.727,3.38,5.786,5.786,0,0,0,3.513,1.04h2.6a5.78,5.78,0,0,0,3.507-1.04,10.268,10.268,0,0,0,2.733-3.38l11.96-18.726a11.177,11.177,0,0,0,2.086-5.46c.169-1.9.26-3.725.26-5.46V57.987q0-4.943,2.207-7.153c1.469-1.469,3.858-2.213,7.153-2.213h38.747c3.289,0,5.678.744,7.153,2.213s2.207,3.858,2.207,7.153v49.927q0,11.963-2.08,17.946a59.061,59.061,0,0,1-7.8,14.04L492.6,193.473V226.5c0,3.3-.744,5.678-2.213,7.147S486.529,235.86,483.233,235.86Zm-17.94-67.873a20.852,20.852,0,0,0,10.533-2.6,28.872,28.872,0,0,0,8.713-8.32l26-35.113a17.3,17.3,0,0,0,3.513-9.227q.39-5.07.387-10.793V72.027h-2.6v29.907a103.865,103.865,0,0,1-.52,10.533,16.216,16.216,0,0,1-3.12,8.447l-26.007,35.113a26.966,26.966,0,0,1-7.927,7.147,18.358,18.358,0,0,1-8.973,2.213h-7.02a20.573,20.573,0,0,1-8.846-2.08,19.32,19.32,0,0,1-7.8-7.28L416.4,120.914a19.1,19.1,0,0,1-3.12-8.707,96.369,96.369,0,0,1-.52-10.273V72.027h-2.6v29.907a108.572,108.572,0,0,0,.52,10.92,18.115,18.115,0,0,0,3.38,9.1l25.226,35.113a28.735,28.735,0,0,0,8.713,8.32,20.3,20.3,0,0,0,10.273,2.6h2.6v44.467h2.6V167.987Z"/>
 <path class="cls-3" d="M680.873,235.86h-99.86q-4.943,0-7.153-2.213t-2.207-7.147V57.987q0-4.943,2.207-7.153c1.469-1.469,3.858-2.213,7.153-2.213h82.954q25.486,0,37.713,9.753T713.9,88.407v12.486q0,10.92-3.773,17.813a23.226,23.226,0,0,1-11.573,10.273q16.643,1.56,24.706,11.44t8.06,28.867v23.926q0,21.84-12.347,32.247Q706.61,235.863,680.873,235.86Zm-80.36-23.406h69.959q10.92,0,17.68-1.947t10.273-5.333a17.489,17.489,0,0,0,4.813-8.193,40.369,40.369,0,0,0,1.3-10.533v-16.64a57.144,57.144,0,0,0-1.173-11.96,20.186,20.186,0,0,0-4.813-9.493,23.549,23.549,0,0,0-10.4-6.24C683.642,140.638,676.1,140,669,140c7.449-1.9,13.82-5.124,15.646-9.46a36.6,36.6,0,0,0,2.727-14.306V99.594a41.916,41.916,0,0,0-1.3-10.666,19.6,19.6,0,0,0-4.94-8.707,24.932,24.932,0,0,0-10.4-5.98q-6.766-2.213-17.426-2.213H600.513ZM653.306,74.627q19.5,0,25.486,7.28a26.976,26.976,0,0,1,5.98,17.686v16.64a43.3,43.3,0,0,1-.907,8.973,14.853,14.853,0,0,1-4.166,7.54,22.785,22.785,0,0,1-9.487,5.2q-6.249,1.959-16.906,1.953H603.12V74.627ZM670.733,142.5q19.5,0,25.353,7.8t5.853,19.506v16.64q0,10.666-5.986,17.039t-25.48,6.367H603.12V142.5ZM630.16,92.833v28.08h22.106q4.934,0,7.413-2.6t2.467-7.8v-7.28q0-5.2-2.467-7.8t-7.413-2.6Zm0,68.133v30.687h33.807q4.943,0,7.413-2.6t2.473-7.806v-10.14q0-5.2-2.473-7.673t-7.413-2.467Z"/>
 <path class="cls-3" d="M999.433,235.86H959.386q-4.943,0-7.153-2.213t-2.207-7.147V57.987q0-4.943,2.207-7.153c1.469-1.469,3.858-2.213,7.153-2.213h86.6q29.114,0,40.174,12.093t11.053,31.34v11.96q0,10.92-3.253,18.593a20.229,20.229,0,0,1-11.307,11.053q14.04,1.56,22.753,11.44t8.713,26.267V226.5c0,3.3-.744,5.678-2.213,7.147s-3.858,2.213-7.153,2.213h-40.307q-4.943,0-7.153-2.213t-2.207-7.147V186.707c0-3.809-.744-6.627-2.213-8.447s-4.027-2.733-7.673-2.733h-36.407V226.5q0,4.943-2.207,7.147T999.433,235.86Zm-18.726-23.406V152.121h73.6q14.82,0,21.84,6.373t7.026,19.113v34.847h2.6V177.607q0-13.514-7.806-20.673t-23.66-7.153L1044.875,151c6.24-1.9,16.971-6.631,19.051-11.747s3.12-11.658,3.12-19.639v-17.94q0-12.743-7.28-21.193T1037.4,72.027H978.107V212.454ZM1037.4,74.627q13.786,0,20.413,7.54t6.633,19.506v18.2q0,14.312-5.46,22.106t-21.586,7.8H980.707V74.627Zm-28.607,20.806V128.72H1028.3q6.757,0,9.1-3.513a15.364,15.364,0,0,0,2.34-8.713v-8.84a15.378,15.378,0,0,0-2.34-8.713q-2.34-3.51-9.1-3.507Z"/>
 <polygon class="cls-4" points="875.833 141.714 797.24 141.714 797.24 144.314 874.833 144.5 875.833 141.714"/>
 <path class="cls-5" d="M927.242,179.425c-.278-2.661-.387-5.513-1.445-7.889-6.149-13.8-12.565-27.481-18.856-41.218a8.6,8.6,0,0,1-.7-2.762,204.428,204.428,0,0,0-4.263-27.9c-3.951-17.253-9.913-33.666-20.286-48.214-7.576-10.623-17.045-19.005-29.114-24.218a53.122,53.122,0,0,0-22.69-4.816,42.531,42.531,0,0,0-6.724,1.247c0,.223.006.446.006.67a16.451,16.451,0,0,1,2.24.511,88.034,88.034,0,0,1,26.85,16.576A63.441,63.441,0,0,1,868.028,61.27,263.1,263.1,0,0,1,881.4,93.035a180,180,0,0,1,8.214,33.99,5.952,5.952,0,0,1-.082,1.991q-3.764,17.5-7.582,34.988c-2.54,11.6-2.506,11.588-.883,23.464q2.068,15.131,3.912,30.292c.375,3.074.4,6.19.6,9.4l-10.355,0a2.8,2.8,0,0,1-.148-.455c-1.1-17.178-3.649-34.19-5.892-51.238a6.854,6.854,0,0,1,.13-2.273q4.807-22.222,9.641-44.438A7.758,7.758,0,0,0,879,126.29c-.94-5.472-1.757-10.975-2.968-16.388C872,91.839,865.4,74.854,854.16,59.94c-6.851-9.084-14.938-16.782-25.16-22.033-5.034-2.586-10.288-4.318-16.027-4.139-8.375.262-14.784,4.408-20.108,10.478-6.05,6.9-9.944,15.051-13.206,23.527-5.267,13.68-8.456,27.911-10.588,42.355-4.58,31.026-18.463,119.541-18.463,125.733,6.192,0,12.383,0,17.771.081.9-5.762,1.732-11.322,2.642-16.868,5.388-32.862,10.488-82.231,18.53-114.569,2.394-9.633,5.267-19.121,9.711-28.048,2.836-5.694,6.234-10.939,11.785-14.445,4.112-2.6,10.376-2.965,13.8-.309a76.3,76.3,0,0,1,6.407,5.672c-5.34-1.9-7.134-.463-10.593,1.966a25.965,25.965,0,0,0-4.893,4.41,68.268,68.268,0,0,0-12.108,20.864,227.635,227.635,0,0,0-7.927,28.491c-1.735,7.7-3.691,15.354-5.067,23.115-3.882,21.882-8.6,86.78-9.094,89.64h12.383c.707-3.191,3.017-52.15,4.683-69.179h63.124c-.511,2.709-1.025,5.417-1.521,8.129a5.4,5.4,0,0,0-.085,1.853c3.292,18.805,6.948,40.368,10.234,59.181a35.188,35.188,0,0,1,4.057.017h20.9c2.159-15.58,4.278-38.275,6.464-53.852.07-.507.16-1.011.3-1.875a9.813,9.813,0,0,1,.4,1.008c3.561,16.088,5.578,38.62,9.088,54.719h12.885c.266-.08,2.425-18.954,2.733-23.463C927.971,201.408,928.391,190.412,927.242,179.425Zm-120.56-64.647c2.561-10.452,5.75-20.684,11.461-29.936,3.61-5.845,7.972-10.945,14.14-14.275.886-.478,1.436-.532,2.007.381,3.026,4.85,6.288,9.566,9.088,14.544a221.726,221.726,0,0,1,14.648,32.149c.215.579.405,1.165.617,1.745l-52.987.159C806.008,117.958,806.295,116.36,806.682,114.778Zm57.833,26.937c.13.861.233,1.732.333,2.6h-63.48c.118-.865.2-1.736.323-2.6Z"/>
 <rect class="cls-2" x="801.69" y="141.714" width="61.976" height="2.119"/>
 <polygon class="cls-2" points="896.389 237.067 869.341 237.129 869.141 235.835 896.5 235.875 896.389 237.067"/>
 <polygon class="cls-2" points="894.247 234.625 871.417 234.625 871.341 234.069 894.323 234.069 894.247 234.625"/>
</svg>
