<svg width="208" height="94" viewBox="0 0 208 94" fill="none" xmlns="http://www.w3.org/2000/svg">
<!-- 
    Crowbar shape derived from https://game-icons.net/delapouite/originals/crowbar.html 
-->
<path d="M71.568 52.048C74.6827 52.048 77.264 53.1147 79.312 55.248L77.264 58.832L77.008 59.408L76.56 59.152C76.432 58.6827 76.2827 58.32 76.112 58.064C75.9413 57.7653 75.5787 57.4453 75.024 57.104C73.9147 56.3787 72.656 56.016 71.248 56.016C69.712 56.016 68.2613 56.4 66.896 57.168C65.5307 57.936 64.4213 59.1093 63.568 60.688C62.7147 62.224 62.288 64.1653 62.288 66.512V82.064H57.616V52.752H62.416L62.288 58.128C63.0987 56.208 64.336 54.7147 66 53.648C67.7067 52.5813 69.5627 52.048 71.568 52.048Z" fill="black"/>
<path d="M110.352 52.752C110.096 54.5013 109.691 56.2293 109.136 57.936C108.624 59.6427 107.877 61.904 106.896 64.72L99.6 85.328C98.6187 88.0587 97.3387 90.0427 95.76 91.28C94.1813 92.5173 92.304 93.136 90.128 93.136C87.3973 93.136 85.1573 92.304 83.408 90.64L85.392 87.504L85.776 86.928L86.16 87.184C86.2453 87.6107 86.3947 87.952 86.608 88.208C86.8213 88.5067 87.2267 88.7627 87.824 88.976C88.592 89.232 89.4453 89.36 90.384 89.36C91.9627 89.36 93.2213 88.8053 94.16 87.696C95.0987 86.5867 96.016 84.752 96.912 82.192L84.944 52.752H89.744L98.832 76.176L102.672 64.4C103.611 61.456 104.293 59.216 104.72 57.68C105.189 56.1013 105.531 54.4587 105.744 52.752H110.352Z" fill="black"/>
<path d="M131.024 82.704C129.275 82.704 127.653 82.32 126.16 81.552C124.667 80.7413 123.408 79.6107 122.384 78.16L120.784 82H117.84V39.44H123.088V39.888C122.832 40.144 122.661 40.4213 122.576 40.72C122.533 41.0187 122.512 41.5307 122.512 42.256V57.232C123.451 55.6533 124.709 54.3947 126.288 53.456C127.909 52.5173 129.552 52.048 131.216 52.048C134.885 52.048 137.808 53.328 139.984 55.888C142.16 58.448 143.248 62.1813 143.248 67.088C143.248 70.416 142.672 73.2747 141.52 75.664C140.368 78.0107 138.853 79.7813 136.976 80.976C135.099 82.128 133.115 82.704 131.024 82.704ZM130.448 78.608C132.752 78.608 134.672 77.712 136.208 75.92C137.744 74.0853 138.512 71.2267 138.512 67.344C138.512 63.5893 137.787 60.7733 136.336 58.896C134.928 56.976 133.008 56.016 130.576 56.016C128.187 56.016 126.245 57.0827 124.752 59.216C123.259 61.3493 122.512 64.1013 122.512 67.472C122.512 74.896 125.157 78.608 130.448 78.608Z" fill="black"/>
<path d="M161.616 52.112C165.797 52.112 168.976 53.2 171.152 55.376C173.371 57.552 174.48 61.2427 174.48 66.448V82H169.488V77.52C167.696 80.976 164.368 82.704 159.504 82.704C156.261 82.704 153.723 81.9787 151.888 80.528C150.053 79.0347 149.136 77.072 149.136 74.64C149.136 72.592 149.797 70.8 151.12 69.264C152.443 67.728 154.213 66.5547 156.432 65.744C158.693 64.8907 161.168 64.464 163.856 64.464C166.288 64.464 168.485 64.592 170.448 64.848C170.192 61.5627 169.317 59.2587 167.824 57.936C166.373 56.5707 164.197 55.888 161.296 55.888C159.845 55.888 158.437 56.1653 157.072 56.72C155.749 57.2747 154.533 58.0853 153.424 59.152L151.184 56.208C153.915 53.4773 157.392 52.112 161.616 52.112ZM159.952 79.184C163.109 79.184 165.605 78.2667 167.44 76.432C169.275 74.5547 170.277 71.8667 170.448 68.368C168.528 68.0693 166.459 67.92 164.24 67.92C160.997 67.92 158.437 68.4533 156.56 69.52C154.683 70.5867 153.744 72.208 153.744 74.384C153.744 77.584 155.813 79.184 159.952 79.184Z" fill="black"/>
<path d="M199.568 52.048C202.683 52.048 205.264 53.1147 207.312 55.248L205.264 58.832L205.008 59.408L204.56 59.152C204.432 58.6827 204.283 58.32 204.112 58.064C203.941 57.7653 203.579 57.4453 203.024 57.104C201.915 56.3787 200.656 56.016 199.248 56.016C197.712 56.016 196.261 56.4 194.896 57.168C193.531 57.936 192.421 59.1093 191.568 60.688C190.715 62.224 190.288 64.1653 190.288 66.512V82.064H185.616V52.752H190.416L190.288 58.128C191.099 56.208 192.336 54.7147 194 53.648C195.707 52.5813 197.563 52.048 199.568 52.048Z" fill="black"/>
<path d="M30.4877 1.6288C40.749 1.70062 54.2668 11.434 56.8571 18.0469C59.4474 24.6598 57.3989 29.6195 53.848 34.02L42.4171 41.0607C39.2267 44.7669 36.2069 49.2922 33.0432 52.3725L31.028 50.2771C34.5869 46.3953 37.7263 42.2838 40.4617 38.8508L51.887 31.8132C59.9267 21.7713 49.4141 13.2279 44.6255 9.60982C24.1028 -5.89619 14.5256 8.67693 11.3332 21.2393C8.14078 33.8017 7.6847 45.6385 7.6847 45.6385L12.4109 47.9188C12.4109 43.4006 15.4378 21.9234 21.1385 13.9372C26.3546 6.62995 34.4675 7.594 40.9965 11.8901C48.274 16.6788 53.9941 24.8308 46.6778 32.4128L38.421 37.3137L28.6739 50.6694L31.0392 54.4068L34.279 54.8916L45.8589 46.5082L40.3226 54.8163L37.7907 58.6391L36.0091 58.856L39.869 61.0467L40.9965 60.4787C42.9846 58.8261 49.1178 54.0977 51.9921 49.9503L56.8571 37.5555C64.3868 29.1487 66.5164 23.7425 60.1315 13.9372C53.7466 4.13199 35.2763 -1.79164 30.4877 1.6288ZM20.2264 22.8356C18.8276 26.256 16.8059 31.7711 14.2976 47.9188L20.2263 47.4627C22.5066 29.0348 30.1942 7.97191 40.9965 11.8901C27.7386 4.36518 21.6251 19.4151 20.2264 22.8356ZM7.00066 47.9188L0.615826 78.0187L3.59441 80.7932L14.5256 78.0187L20.0128 49.9503L12.4109 50.2771L7.00066 47.9188Z" fill="black"/>
</svg>
